<svg width="61" height="61" xmlns="http://www.w3.org/2000/svg" xmlns:xlink="http://www.w3.org/1999/xlink" xml:space="preserve" overflow="hidden"><g transform="translate(-471 -191)"><path d="M471.634 191.634 531.366 191.634 531.366 251.366 471.634 251.366Z" stroke="#FFFFFF" stroke-width="1.24444" stroke-miterlimit="8" fill="#FFFFFF" fill-rule="evenodd"/><g><g><g><path d="M551.588 279.548C551.588 277.172 549.661 275.244 547.282 275.244 544.906 275.244 542.978 277.172 542.978 279.548 542.978 281.927 544.906 283.855 547.282 283.855 547.284 283.855 547.284 283.855 547.284 283.855 549.661 283.853 551.588 281.927 551.588 279.548ZM548.803 279.548C548.803 280.386 548.122 281.067 547.284 281.067 546.448 281.067 545.767 280.386 545.767 279.548 545.767 278.71 546.448 278.031 547.284 278.031 548.122 278.031 548.803 278.71 548.803 279.548Z" fill="#8ABB2A" transform="matrix(1 0 0 1.00277 -22.604 -68.8984)"/><path d="M496.716 299.392C497.995 298.502 498.721 297.007 498.627 295.448 498.64 294.634 498.441 293.83 498.05 293.117 497.545 292.333 496.777 291.752 495.885 291.48 497.069 290.876 497.812 289.66 497.809 288.331 497.836 287.553 497.648 286.783 497.268 286.106 496.902 285.498 496.384 284.997 495.765 284.651 495.052 284.256 494.274 283.992 493.468 283.869 492.503 283.71 491.526 283.634 490.547 283.641 489.761 283.641 488.91 283.677 487.996 283.75 487.149 283.813 486.308 283.922 485.471 284.074L485.471 300.236C486.402 300.437 487.347 300.571 488.297 300.632 489.202 300.688 490.112 300.717 491.026 300.716 493.544 300.716 495.439 300.276 496.716 299.392ZM491.486 293.236C492.339 293.189 493.191 293.359 493.962 293.73 494.545 294.065 494.884 294.706 494.829 295.378 494.896 296.129 494.484 296.842 493.796 297.157 492.936 297.51 492.008 297.675 491.079 297.638 490.693 297.638 490.34 297.631 490.02 297.615 489.7 297.599 489.403 297.575 489.131 297.542L489.131 293.236ZM489.128 286.743C489.417 286.711 489.747 286.691 490.114 286.682 490.483 286.675 490.827 286.671 491.148 286.671 491.924 286.628 492.697 286.767 493.409 287.08 493.926 287.357 494.229 287.915 494.18 288.497 494.219 289.078 493.932 289.631 493.434 289.929 492.657 290.282 491.807 290.436 490.956 290.374L489.128 290.374 489.128 286.745ZM508.512 300.5C509.173 299.106 509.822 297.656 510.461 296.149 511.102 294.641 511.71 293.149 512.29 291.674 512.867 290.199 513.399 288.789 513.882 287.444 514.368 286.099 514.798 284.895 515.171 283.833L511.178 283.833C510.865 284.803 510.517 285.844 510.136 286.957 509.754 288.068 509.365 289.178 508.968 290.282 508.572 291.388 508.188 292.447 507.817 293.459 507.446 294.471 507.104 295.343 506.791 296.074 506.457 295.338 506.11 294.463 505.748 293.452L504.609 290.275C504.211 289.171 503.824 288.061 503.442 286.95 503.062 285.837 502.714 284.798 502.401 283.833L498.265 283.833C498.618 284.89 499.04 286.094 499.527 287.44 500.014 288.789 500.548 290.199 501.129 291.672 501.708 293.146 502.321 294.635 502.968 296.141 503.612 297.646 504.267 299.099 504.93 300.5ZM519.204 289.953C519.38 289.334 519.675 288.754 520.069 288.246 520.442 287.777 520.915 287.399 521.452 287.14 522.041 286.867 522.681 286.731 523.329 286.743 523.97 286.733 524.607 286.865 525.192 287.127 525.737 287.377 526.215 287.752 526.587 288.222 526.982 288.731 527.277 289.31 527.455 289.929 527.663 290.653 527.764 291.403 527.755 292.156 527.764 292.903 527.663 293.649 527.455 294.368 527.275 294.983 526.982 295.559 526.587 296.064 526.215 296.532 525.737 296.907 525.192 297.157 523.999 297.671 522.647 297.671 521.454 297.157 520.915 296.905 520.44 296.531 520.071 296.064 519.677 295.559 519.383 294.983 519.204 294.368 518.804 292.923 518.804 291.397 519.204 289.955ZM530.977 288.391C530.581 287.366 529.974 286.436 529.196 285.661 528.445 284.924 527.541 284.358 526.551 284.001 525.518 283.628 524.426 283.442 523.328 283.447 522.249 283.444 521.179 283.63 520.165 284.001 519.177 284.361 518.276 284.928 517.521 285.661 516.733 286.436 516.114 287.364 515.703 288.391 515.235 289.589 515.005 290.869 515.03 292.156 515.012 293.323 515.191 294.485 515.56 295.595 515.879 296.545 516.377 297.427 517.027 298.192 517.642 298.905 518.395 299.49 519.24 299.912 520.107 300.343 521.043 300.621 522.006 300.741 522.18 301.376 522.46 301.979 522.835 302.52 523.223 303.058 523.722 303.501 524.303 303.822 525.011 304.207 525.773 304.488 526.562 304.651 527.619 304.871 528.694 304.996 529.773 305.024L530.543 302.281C529.902 302.234 529.304 302.178 528.751 302.113 528.258 302.06 527.771 301.964 527.297 301.825 526.926 301.718 526.577 301.552 526.262 301.331 525.997 301.143 525.811 300.866 525.733 300.549 526.578 300.35 527.384 300.008 528.113 299.539 528.837 299.074 529.469 298.478 529.978 297.783 530.519 297.037 530.93 296.203 531.192 295.318 531.495 294.292 531.639 293.225 531.627 292.156 531.65 290.87 531.431 289.594 530.975 288.392Z" fill="#464749" transform="matrix(1 0 0 1.00277 -10.6701 -70.6057)"/></g></g></g></g></svg>